<svg width="89" height="89" viewBox="0 0 89 89" fill="none" xmlns="http://www.w3.org/2000/svg">
<circle cx="44.5" cy="44.5" r="44.5" fill="#007BFF" fill-opacity="0.08"/>
<path d="M59.6673 54.3872V55.0006C59.6665 56.4382 59.201 57.837 58.3402 58.9884C57.4794 60.1399 56.2695 60.9822 54.8909 61.3898C53.5123 61.7974 52.0388 61.7485 50.6903 61.2503C49.3418 60.7521 48.1904 59.8313 47.408 58.6253C46.6255 57.4193 46.2538 55.9926 46.3484 54.5581C46.443 53.1236 46.9988 51.7581 47.9328 50.6653C48.8669 49.5724 50.1292 48.8108 51.5314 48.494C52.9337 48.1772 54.4008 48.3221 55.714 48.9072" stroke="#007BFF" stroke-width="2" stroke-linecap="round" stroke-linejoin="round"/>
<path d="M59.6667 49.666L53 56.3393L51 54.3393" stroke="#007BFF" stroke-width="2" stroke-linecap="round" stroke-linejoin="round"/>
<path d="M36.5 34.5H49.5" stroke="#007BFF" stroke-width="2" stroke-linecap="round"/>
<path d="M37 42H45" stroke="#007BFF" stroke-width="2" stroke-linecap="round"/>
<path d="M41.3448 59H35C32.7909 59 31 57.2091 31 55V31C31 28.7909 32.7909 27 35 27H51C53.2091 27 55 28.7909 55 31V41.3158" stroke="#007BFF" stroke-width="2" stroke-linecap="round"/>
</svg>
