<svg width="58" height="58" viewBox="0 0 58 58" fill="none" xmlns="http://www.w3.org/2000/svg">
<g clip-path="url(#clip0_2250_10592)">
<path d="M17.1849 4.14258H9.35951C7.97589 4.14258 6.64895 4.69222 5.67058 5.67058C4.69222 6.64895 4.14258 7.97589 4.14258 9.35951V17.1849M51.095 17.1849V9.35951C51.095 7.97589 50.5453 6.64895 49.567 5.67058C48.5886 4.69222 47.2616 4.14258 45.878 4.14258H38.0526M38.0526 51.095H45.878C47.2616 51.095 48.5886 50.5453 49.567 49.567C50.5453 48.5886 51.095 47.2616 51.095 45.878V38.0526M4.14258 38.0526V45.878C4.14258 47.2616 4.69222 48.5886 5.67058 49.567C6.64895 50.5453 7.97589 51.095 9.35951 51.095H17.1849" stroke="url(#paint0_linear_2250_10592)" stroke-width="3.4" stroke-linecap="round" stroke-linejoin="round"/>
<path d="M17.1464 27.6186C16.7497 27.6186 16.3691 27.7763 16.0886 28.0568C15.808 28.3374 15.6504 28.7179 15.6504 29.1147C15.6504 29.5114 15.808 29.892 16.0886 30.1725C16.3691 30.4531 16.7497 30.6107 17.1464 30.6107C19.1303 30.6107 21.0329 31.3988 22.4357 32.8016C23.8385 34.2044 24.6266 36.107 24.6266 38.0909C24.6266 38.4876 24.7842 38.8682 25.0648 39.1487C25.3453 39.4293 25.7258 39.5869 26.1226 39.5869C26.5194 39.5869 26.8999 39.4293 27.1805 39.1487C27.461 38.8682 27.6186 38.4876 27.6186 38.0909C27.6186 35.3135 26.5153 32.6498 24.5514 30.6859C22.5875 28.722 19.9238 27.6186 17.1464 27.6186ZM17.1464 15.6504C16.7497 15.6504 16.3691 15.808 16.0886 16.0886C15.808 16.3691 15.6504 16.7497 15.6504 17.1464C15.6504 17.5432 15.808 17.9237 16.0886 18.2043C16.3691 18.4848 16.7497 18.6425 17.1464 18.6425C22.3045 18.6425 27.2512 20.6915 30.8985 24.3388C34.5458 27.986 36.5948 32.9328 36.5948 38.0909C36.5948 38.4876 36.7525 38.8682 37.033 39.1487C37.3136 39.4293 37.6941 39.5869 38.0909 39.5869C38.4876 39.5869 38.8682 39.4293 39.1487 39.1487C39.4293 38.8682 39.5869 38.4876 39.5869 38.0909C39.5869 32.1393 37.2226 26.4315 33.0142 22.2231C28.8058 18.0146 23.098 15.6504 17.1464 15.6504V15.6504ZM17.1464 21.6345C16.7497 21.6345 16.3691 21.7921 16.0886 22.0727C15.808 22.3533 15.6504 22.7338 15.6504 23.1305C15.6504 23.5273 15.808 23.9078 16.0886 24.1884C16.3691 24.469 16.7497 24.6266 17.1464 24.6266C20.7174 24.6266 24.1421 26.0451 26.6671 28.5702C29.1922 31.0952 30.6107 34.5199 30.6107 38.0909C30.6107 38.4876 30.7683 38.8682 31.0489 39.1487C31.3294 39.4293 31.71 39.5869 32.1067 39.5869C32.5035 39.5869 32.884 39.4293 33.1646 39.1487C33.4452 38.8682 33.6028 38.4876 33.6028 38.0909C33.6028 33.7264 31.869 29.5406 28.7828 26.4545C25.6967 23.3683 21.5109 21.6345 17.1464 21.6345V21.6345Z" fill="url(#paint1_linear_2250_10592)"/>
</g>
<defs>
<linearGradient id="paint0_linear_2250_10592" x1="27.6188" y1="4.14258" x2="27.6188" y2="51.095" gradientUnits="userSpaceOnUse">
<stop stop-color="#7A64FF"/>
<stop offset="1" stop-color="#61D7FF"/>
</linearGradient>
<linearGradient id="paint1_linear_2250_10592" x1="27.6186" y1="15.6504" x2="27.6186" y2="39.5869" gradientUnits="userSpaceOnUse">
<stop stop-color="#7A64FF"/>
<stop offset="1" stop-color="#61D7FF"/>
</linearGradient>
<clipPath id="clip0_2250_10592">
<rect width="58" height="58" fill="white"/>
</clipPath>
</defs>
</svg>
