<svg width="61" height="61" viewBox="0 0 61 61" fill="none" xmlns="http://www.w3.org/2000/svg">
<path d="M34.0392 27.5383C36.1634 25.867 37.7139 23.5753 38.4749 20.9818C39.2359 18.3883 39.1697 15.6221 38.2854 13.0681C37.4011 10.514 35.7427 8.29906 33.541 6.73139C31.3393 5.16372 28.7036 4.32129 26.0008 4.32129C23.298 4.32129 20.6624 5.16372 18.4606 6.73139C16.2589 8.29906 14.6005 10.514 13.7162 13.0681C12.8319 15.6221 12.7657 18.3883 13.5267 20.9818C14.2878 23.5753 15.8383 25.867 17.9625 27.5383C14.3226 28.9966 11.1467 31.4152 8.77334 34.5365C6.39998 37.6577 4.91811 41.3645 4.48573 45.2617C4.45443 45.5462 4.47948 45.8341 4.55945 46.109C4.63942 46.3838 4.77274 46.6402 4.9518 46.8636C5.31344 47.3146 5.83943 47.6035 6.41407 47.6667C6.98871 47.7299 7.56492 47.5623 8.01595 47.2006C8.46697 46.839 8.75587 46.313 8.81908 45.7384C9.29485 41.5029 11.3144 37.5913 14.4919 34.7507C17.6694 31.9101 21.7821 30.3399 26.0442 30.3399C30.3062 30.3399 34.4189 31.9101 37.5964 34.7507C40.7739 37.5913 42.7935 41.5029 43.2692 45.7384C43.3281 46.2708 43.5822 46.7625 43.9823 47.1186C44.3824 47.4747 44.9003 47.67 45.4359 47.6667H45.6742C46.2422 47.6014 46.7613 47.3142 47.1185 46.8677C47.4756 46.4213 47.6418 45.8518 47.5809 45.2834C47.1465 41.3751 45.6566 37.6588 43.2711 34.5328C40.8855 31.4067 37.6942 28.9888 34.0392 27.5383ZM26.0008 26C24.2867 26 22.6111 25.4917 21.1859 24.5393C19.7606 23.587 18.6498 22.2335 17.9938 20.6499C17.3379 19.0662 17.1662 17.3236 17.5006 15.6425C17.835 13.9613 18.6605 12.417 19.8725 11.205C21.0846 9.99291 22.6289 9.16748 24.31 8.83308C25.9912 8.49867 27.7338 8.6703 29.3174 9.32626C30.9011 9.98222 32.2546 11.0931 33.2069 12.5183C34.1592 13.9435 34.6675 15.6191 34.6675 17.3332C34.6675 19.6318 33.7544 21.8362 32.1291 23.4615C30.5038 25.0869 28.2994 26 26.0008 26Z" fill="url(#paint0_linear_2250_10599)"/>
<path d="M58.9995 46.2602V47.3335C58.998 49.8494 58.1834 52.2974 56.677 54.3124C55.1706 56.3274 53.0533 57.8015 50.6407 58.5148C48.2281 59.2281 45.6495 59.1425 43.2896 58.2706C40.9297 57.3987 38.9148 55.7874 37.5455 53.6768C36.1762 51.5663 35.5258 49.0696 35.6913 46.5592C35.8568 44.0489 36.8294 41.6592 38.464 39.7468C40.0986 37.8343 42.3076 36.5015 44.7616 35.947C47.2156 35.3926 49.7831 35.6462 52.0811 36.6702" fill="white"/>
<path d="M58.9995 46.2602V47.3335C58.998 49.8494 58.1834 52.2974 56.677 54.3124C55.1706 56.3274 53.0533 57.8015 50.6407 58.5148C48.2281 59.2281 45.6495 59.1425 43.2896 58.2706C40.9297 57.3987 38.9148 55.7874 37.5455 53.6768C36.1762 51.5663 35.5258 49.0696 35.6913 46.5592C35.8568 44.0489 36.8294 41.6592 38.464 39.7468C40.0986 37.8343 42.3076 36.5015 44.7616 35.947C47.2156 35.3926 49.7831 35.6462 52.0811 36.6702" stroke="url(#paint1_linear_2250_10599)" stroke-width="2.6" stroke-linecap="round" stroke-linejoin="round"/>
<path d="M58.9988 38L47.332 49.6784L43.832 46.1784" fill="white"/>
<path d="M58.9988 38L47.332 49.6784L43.832 46.1784" stroke="url(#paint2_linear_2250_10599)" stroke-width="2.6" stroke-linecap="round" stroke-linejoin="round"/>
<defs>
<linearGradient id="paint0_linear_2250_10599" x1="26.033" y1="4.32129" x2="26.033" y2="47.6798" gradientUnits="userSpaceOnUse">
<stop stop-color="#7A64FF"/>
<stop offset="1" stop-color="#61D7FF"/>
</linearGradient>
<linearGradient id="paint1_linear_2250_10599" x1="47.3327" y1="35.6602" x2="47.3327" y2="58.9936" gradientUnits="userSpaceOnUse">
<stop stop-color="#7A64FF"/>
<stop offset="1" stop-color="#61D7FF"/>
</linearGradient>
<linearGradient id="paint2_linear_2250_10599" x1="51.4154" y1="38" x2="51.4154" y2="49.6784" gradientUnits="userSpaceOnUse">
<stop stop-color="#7A64FF"/>
<stop offset="1" stop-color="#61D7FF"/>
</linearGradient>
</defs>
</svg>
