<svg width="89" height="89" viewBox="0 0 89 89" fill="none" xmlns="http://www.w3.org/2000/svg">
<circle cx="44.5" cy="44.5" r="44.5" fill="#007BFF" fill-opacity="0.08"/>
<path d="M59.9991 56.96V54.1867C59.9982 52.9577 59.596 51.7639 58.8555 50.7926C58.1151 49.8213 57.0784 49.1276 55.9082 48.8203" stroke="#007BFF" stroke-width="2" stroke-linecap="round" stroke-linejoin="round"/>
<path d="M51.8182 56.9606V54.1873C51.8182 52.7162 51.2435 51.3054 50.2206 50.2652C49.1977 49.225 47.8103 48.6406 46.3636 48.6406H35.4545C34.0079 48.6406 32.6205 49.225 31.5976 50.2652C30.5747 51.3054 30 52.7162 30 54.1873V56.9606" stroke="#007BFF" stroke-width="2" stroke-linecap="round" stroke-linejoin="round"/>
<path d="M50.4551 32.1797C51.6284 32.4852 52.6683 33.1791 53.411 34.152C54.1536 35.1249 54.5567 36.3214 54.5567 37.553C54.5567 38.7846 54.1536 39.9812 53.411 40.9541C52.6683 41.927 51.6284 42.6209 50.4551 42.9264" stroke="#007BFF" stroke-width="2" stroke-linecap="round" stroke-linejoin="round"/>
<path d="M40.9096 43.0933C43.9221 43.0933 46.3642 40.61 46.3642 37.5467C46.3642 34.4833 43.9221 32 40.9096 32C37.8972 32 35.4551 34.4833 35.4551 37.5467C35.4551 40.61 37.8972 43.0933 40.9096 43.0933Z" stroke="#007BFF" stroke-width="2" stroke-linecap="round" stroke-linejoin="round"/>
</svg>
