<svg width="89" height="89" viewBox="0 0 89 89" fill="none" xmlns="http://www.w3.org/2000/svg">
<circle cx="44.5" cy="44.5" r="44.5" fill="#007BFF" fill-opacity="0.08"/>
<path d="M52.55 41H36.45C35.535 41 34.6575 41.3556 34.0105 41.9885C33.3635 42.6215 33 43.4799 33 44.375V55.625C33 56.5201 33.3635 57.3786 34.0105 58.0115C34.6575 58.6444 35.535 59 36.45 59H52.55C53.465 59 54.3425 58.6444 54.9895 58.0115C55.6365 57.3786 56 56.5201 56 55.625V44.375C56 43.4799 55.6365 42.6215 54.9895 41.9885C54.3425 41.3556 53.465 41 52.55 41ZM52.0785 43.25L45.3165 49.865C45.2096 49.9704 45.0824 50.0541 44.9423 50.1113C44.8021 50.1684 44.6518 50.1978 44.5 50.1978C44.3482 50.1978 44.1979 50.1684 44.0577 50.1113C43.9176 50.0541 43.7904 49.9704 43.6835 49.865L36.9215 43.25H52.0785ZM53.7 55.625C53.7 55.9234 53.5788 56.2095 53.3632 56.4205C53.1475 56.6315 52.855 56.75 52.55 56.75H36.45C36.145 56.75 35.8525 56.6315 35.6368 56.4205C35.4212 56.2095 35.3 55.9234 35.3 55.625V44.8362L42.062 51.4513C42.7089 52.0833 43.5857 52.4383 44.5 52.4383C45.4143 52.4383 46.2911 52.0833 46.938 51.4513L53.7 44.8362V55.625Z" fill="#007BFF"/>
<path d="M46.5 29H40.5C40.1022 29 39.7206 29.158 39.4393 29.4393C39.158 29.7206 39 30.1022 39 30.5V42.5C39 42.8978 39.158 43.2794 39.4393 43.5607C39.7206 43.842 40.1022 44 40.5 44H49.5C49.8978 44 50.2794 43.842 50.5607 43.5607C50.842 43.2794 51 42.8978 51 42.5V33.5L46.5 29Z" fill="#EBF4FF" stroke="#007BFF" stroke-width="1.2" stroke-linecap="round" stroke-linejoin="round"/>
<path d="M48 40.25H42" stroke="#007BFF" stroke-width="1.2" stroke-linecap="round" stroke-linejoin="round"/>
<path d="M48 37.25H42" stroke="#007BFF" stroke-width="1.2" stroke-linecap="round" stroke-linejoin="round"/>
<path d="M46.5 29V33.5H51" fill="#EBF4FF"/>
<path d="M46.5 29V33.5H51" stroke="#007BFF" stroke-width="1.2" stroke-linecap="round" stroke-linejoin="round"/>
</svg>
