<svg width="89" height="89" viewBox="0 0 89 89" fill="none" xmlns="http://www.w3.org/2000/svg">
<circle cx="44.5" cy="44.5" r="44.5" fill="#007BFF" fill-opacity="0.08"/>
<path d="M31.3576 51.9415L34.4706 48.6518C35.1402 47.995 35.9849 47.5599 36.896 47.4023C37.8072 47.2447 38.7432 47.3718 39.5838 47.7673L40.9373 46.3708C39.3424 44.1718 38.614 41.431 38.8987 38.7002C39.1835 35.9694 40.4603 33.4512 42.4721 31.6527C44.4839 29.8542 47.0813 28.9088 49.7415 29.0069C52.4016 29.1051 54.927 30.2393 56.8092 32.1815C58.6915 34.1236 59.7908 36.7294 59.8859 39.4742C59.9809 42.2191 59.0648 44.8992 57.3217 46.9751C55.5787 49.0509 53.1382 50.3683 50.4917 50.6622C47.8451 50.956 45.1889 50.2044 43.0578 48.5587L41.7193 49.9398C42.1478 50.8082 42.3013 51.7935 42.1583 52.7567C42.0153 53.7199 41.583 54.6126 40.9223 55.3088L37.734 58.5986C36.8881 59.4703 35.7414 59.96 34.5458 59.96C33.3502 59.96 32.2035 59.4703 31.3576 58.5986C30.9279 58.165 30.5865 57.6472 30.3533 57.0757C30.1202 56.5041 30.0002 55.8902 30.0002 55.27C30.0002 54.6499 30.1202 54.036 30.3533 53.4644C30.5865 52.8929 30.9279 52.3751 31.3576 51.9415ZM44.1105 45.3621C45.1628 46.4452 46.5027 47.1822 47.9608 47.48C49.4189 47.7778 50.9298 47.623 52.3027 47.0352C53.6756 46.4474 54.8488 45.4529 55.6742 44.1774C56.4996 42.9019 56.9401 41.4026 56.9401 39.8689C56.9401 38.3352 56.4996 36.8359 55.6742 35.5604C54.8488 34.2849 53.6756 33.2905 52.3027 32.7026C50.9298 32.1148 49.4189 31.96 47.9608 32.2578C46.5027 32.5556 45.1628 33.2926 44.1105 34.3757C43.4102 35.0964 42.8546 35.9526 42.4756 36.8952C42.0965 37.8378 41.9014 38.8484 41.9014 39.8689C41.9014 40.8895 42.0965 41.9 42.4756 42.8426C42.8546 43.7852 43.4102 44.6414 44.1105 45.3621ZM33.4781 56.333C33.6179 56.4784 33.7842 56.5939 33.9675 56.6727C34.1507 56.7514 34.3473 56.792 34.5458 56.792C34.7443 56.792 34.9409 56.7514 35.1242 56.6727C35.3074 56.5939 35.4738 56.4784 35.6136 56.333L38.8018 53.0433C38.9427 52.899 39.0546 52.7274 39.131 52.5383C39.2073 52.3492 39.2466 52.1464 39.2466 51.9415C39.2466 51.7367 39.2073 51.5339 39.131 51.3448C39.0546 51.1557 38.9427 50.9841 38.8018 50.8398C38.662 50.6944 38.4957 50.5789 38.3124 50.5001C38.1291 50.4214 37.9326 50.3808 37.734 50.3808C37.5355 50.3808 37.3389 50.4214 37.1557 50.5001C36.9724 50.5789 36.8061 50.6944 36.6663 50.8398L33.4781 54.1295C33.3371 54.2738 33.2252 54.4454 33.1489 54.6345C33.0725 54.8236 33.0332 55.0264 33.0332 55.2313C33.0332 55.4361 33.0725 55.6389 33.1489 55.828C33.2252 56.0171 33.3371 56.1887 33.4781 56.333Z" fill="#007BFF"/>
</svg>
